# xmcd CD database file
#
# Track frame offsets:
#	150
#	14020
#	31667
#	49161
#	67004
#	88199
#	103659
#	122025
#	140800
#	159031
#	179693
#	196907
#	211899
#	235933
#	266340
#
# Disc length: 3960 seconds
#
# Revision: 0
# Processed by: cddbd v1.5.1PL2 Copyright (c) Steve Scherf et al.
# Submitted via: CDex 1.51
#
DISCID=d30f760f
DTITLE=Juleps, The - Kickbutt City USA mp3.com disc
DYEAR=1999
DGENRE=Country
TTITLE0=Wild Beautiful Thing
TTITLE1=Wrong Again
TTITLE2=Marie's Riptide Lounge
TTITLE3=Another Riversong
TTITLE4=Hello Love
TTITLE5=Poison Love
TTITLE6=If Wishes were Horses
TTITLE7=No Problem
TTITLE8=Can't Back it Up
TTITLE9=Berwyn
TTITLE10=Sky Blue Boulevard
TTITLE11=Blind Spot
TTITLE12=Dangerously Flirting with Dawn
TTITLE13=What Forever's all About
TTITLE14=Data Track
EXTD=YEAR: 1999
EXTT0=
EXTT1=
EXTT2=
EXTT3=
EXTT4=
EXTT5=
EXTT6=
EXTT7=
EXTT8=
EXTT9=
EXTT10=
EXTT11=
EXTT12=
EXTT13=
EXTT14=
PLAYORDER=
